<svg xmlns="http://www.w3.org/2000/svg" viewBox="0 0 308.06 52.01"><defs><style>.cls-1{fill:#58595b;}.cls-2{fill:#c4161c;}</style></defs><title>banner_chu</title><g id="Layer_2" data-name="Layer 2"><g id="Layer_1-2" data-name="Layer 1"><path class="cls-1" d="M4.91,51.84H4L0,42.22H1.07l3.39,8.43,3.41-8.43h1Z"/><path class="cls-1" d="M10.41,51.84V42.22h1v9.62Z"/><path class="cls-1" d="M13.67,51.84V42.22h5.26v.88h-4.3v3.45h4.16v.88H14.63V51h4.3v.87Z"/><path class="cls-1" d="M23.38,43.1v8.75h-1V43.1H20.2v-.88h5.37v.88Z"/><path class="cls-1" d="M33.73,51.84,28,43.38h0v8.46H27V42.22h1.3l5.37,8h0v-8h1v9.62Z"/><path class="cls-1" d="M44.51,51.84l-1.4-3.24H38.64l-1.4,3.24h-1l4.11-9.62h1.08l4.13,9.62Zm-3.62-8.52L39,47.74h3.73Z"/><path class="cls-1" d="M56.09,51.84V43.27h0l-3.6,8.57h-.82l-3.57-8.57h0v8.57h-1V42.22h1.48l3.5,8.19,3.51-8.19h1.49v9.62Z"/><path class="cls-1" d="M67.75,51.2a2.84,2.84,0,0,1-2,.81,2.94,2.94,0,0,1-2.11-.79,2.79,2.79,0,0,1-.85-2.08h1a1.81,1.81,0,0,0,2,2,1.88,1.88,0,0,0,1.36-.55,1.84,1.84,0,0,0,.57-1.36,1.68,1.68,0,0,0-.68-1.4,3.23,3.23,0,0,0-.69-.39q-.31-.13-.78-.27a8.41,8.41,0,0,1-1-.34,3.23,3.23,0,0,1-.79-.46A2.14,2.14,0,0,1,63,44.64a2.43,2.43,0,0,1,.79-1.86,2.71,2.71,0,0,1,1.91-.72,2.61,2.61,0,0,1,1.89.74,2.5,2.5,0,0,1,.78,1.87h-1a1.7,1.7,0,0,0-.5-1.23,1.61,1.61,0,0,0-1.21-.52,1.72,1.72,0,0,0-1.23.48A1.58,1.58,0,0,0,64,44.6a1.39,1.39,0,0,0,.77,1.28,4.14,4.14,0,0,0,.74.3l.77.23a3.66,3.66,0,0,1,1.69,1,2.57,2.57,0,0,1,.66,1.8A2.67,2.67,0,0,1,67.75,51.2Z"/><path class="cls-1" d="M78.54,50.57a5.13,5.13,0,0,1-7.13,0,4.66,4.66,0,0,1-1.53-3.5,4.83,4.83,0,0,1,1.49-3.57,5.15,5.15,0,0,1,7.17,0,4.86,4.86,0,0,1,0,7.06Zm-.66-6.43A4,4,0,0,0,75,42.92,4,4,0,0,0,72,44.15a4,4,0,0,0-1.2,2.93,3.86,3.86,0,0,0,1.23,2.86,4.11,4.11,0,0,0,5.8,0A3.9,3.9,0,0,0,79.1,47,4,4,0,0,0,77.88,44.14Z"/><path class="cls-1" d="M91,49.32A4.75,4.75,0,0,1,86.61,52a4.9,4.9,0,0,1-3.55-1.44,5,5,0,0,1,0-7.07,5.1,5.1,0,0,1,7.36.28,3.43,3.43,0,0,1,.61.91H89.93a3.8,3.8,0,0,0-3.35-1.76,3.84,3.84,0,0,0-2.85,1.24,4,4,0,0,0-1.19,2.88,3.93,3.93,0,0,0,1.21,2.85,3.88,3.88,0,0,0,2.84,1.23,3.84,3.84,0,0,0,1.9-.5A4.84,4.84,0,0,0,90,49.32Z"/><path class="cls-1" d="M93,51.84V42.22h1v9.62Z"/><path class="cls-1" d="M103.75,51.84l-1.4-3.24H97.89l-1.4,3.24h-1l4.11-9.62h1.08l4.13,9.62Zm-3.62-8.52-1.89,4.42H102Z"/><path class="cls-1" d="M106.41,51.84V42.22h1V51h4v.87Z"/><path class="cls-1" d="M121.05,51.2a2.84,2.84,0,0,1-2,.81,2.94,2.94,0,0,1-2.11-.79,2.79,2.79,0,0,1-.85-2.08h1a1.81,1.81,0,0,0,2,2,1.88,1.88,0,0,0,1.36-.55,1.84,1.84,0,0,0,.57-1.36,1.68,1.68,0,0,0-.68-1.4,3.23,3.23,0,0,0-.69-.39q-.31-.13-.78-.27a8.41,8.41,0,0,1-1-.34,3.23,3.23,0,0,1-.79-.46,2.14,2.14,0,0,1-.74-1.75,2.43,2.43,0,0,1,.79-1.86,2.71,2.71,0,0,1,1.91-.72,2.61,2.61,0,0,1,1.89.74,2.5,2.5,0,0,1,.78,1.87h-1a1.7,1.7,0,0,0-.5-1.23,1.61,1.61,0,0,0-1.21-.52,1.72,1.72,0,0,0-1.23.48,1.58,1.58,0,0,0-.51,1.2,1.39,1.39,0,0,0,.77,1.28,4.14,4.14,0,0,0,.74.3l.77.23a3.66,3.66,0,0,1,1.69,1,2.57,2.57,0,0,1,.66,1.8A2.67,2.67,0,0,1,121.05,51.2Z"/><path class="cls-1" d="M123.54,51.84V42.22h5.26v.88h-4.3v3.45h4.16v.88H124.5V51h4.3v.87Z"/><path class="cls-1" d="M140,49.32A4.75,4.75,0,0,1,135.59,52,4.9,4.9,0,0,1,132,50.57a5,5,0,0,1,0-7.07,5.1,5.1,0,0,1,7.36.28,3.43,3.43,0,0,1,.61.91H138.9a3.8,3.8,0,0,0-3.35-1.76,3.84,3.84,0,0,0-2.85,1.24,4,4,0,0,0-1.19,2.88,3.93,3.93,0,0,0,1.21,2.85,3.88,3.88,0,0,0,2.84,1.23,3.84,3.84,0,0,0,1.9-.5,4.84,4.84,0,0,0,1.47-1.32Z"/><path class="cls-1" d="M148.49,48.22a6.55,6.55,0,0,1-.08,1,3.87,3.87,0,0,1-.29,1,3.26,3.26,0,0,1-5.83,0,3.7,3.7,0,0,1-.28-1,6,6,0,0,1-.08-1v-6h1v6a5.91,5.91,0,0,0,.06.89,2.56,2.56,0,0,0,.26.85,2.26,2.26,0,0,0,4,0,2.56,2.56,0,0,0,.26-.85,5.42,5.42,0,0,0,.07-.89v-6h1Z"/><path class="cls-1" d="M156.49,47.37a3.06,3.06,0,0,1-2,.89l2.72,3.59H156l-3.26-4.35h1a3.84,3.84,0,0,0,1-.14,2,2,0,0,0,1.59-2,2,2,0,0,0-1.05-1.85,2.92,2.92,0,0,0-.91-.3,6.54,6.54,0,0,0-1-.06h-1.68v8.75h-1V42.22h3l.62.05a3.88,3.88,0,0,1,1.17.3,2.83,2.83,0,0,1,1.71,2.74A2.77,2.77,0,0,1,156.49,47.37Z"/><path class="cls-1" d="M159.16,51.84V42.22h1v9.62Z"/><path class="cls-1" d="M164.76,43.1v8.75h-1V43.1h-2.21v-.88H167v.88Z"/><path class="cls-1" d="M171.77,48.63v3.21h-1V48.63l-3.34-6.41h1.07l2.74,5.4,2.82-5.4h1.05Z"/><path class="cls-2" d="M1,30.06V9.28H7.59a6,6,0,0,1,4,1.09,5,5,0,0,1,1.22,3.8,7.49,7.49,0,0,1-.44,3,3.58,3.58,0,0,1-2.18,1.92,3.32,3.32,0,0,1,2.42,1.59,6.47,6.47,0,0,1,.73,3.24,7.32,7.32,0,0,1-1.17,4.39,5.11,5.11,0,0,1-4.37,1.78ZM5.75,12.82v4.68h.89A1.44,1.44,0,0,0,8,16.8a4.23,4.23,0,0,0,.27-1.71A3.6,3.6,0,0,0,8,13.37a1.23,1.23,0,0,0-1.17-.55Zm0,8.06v5.64h1A1.62,1.62,0,0,0,8.18,26a5.32,5.32,0,0,0,.33-2.29,5.42,5.42,0,0,0-.25-2,1.39,1.39,0,0,0-1.41-.85Z"/><path class="cls-2" d="M19.18,9.25h6.35l3.92,20.81h-5L24,26.37H20.61l-.5,3.69H15.33Zm2-1.09a3.22,3.22,0,0,1,.52-1.55l1-1.24a2,2,0,0,0,.55-1.28,1.75,1.75,0,0,0-.13-.72.58.58,0,0,0-.57-.29.62.62,0,0,0-.55.32,2.4,2.4,0,0,0-.15.83v.71H19.9V4.06a2.35,2.35,0,0,1,.72-1.76,2.7,2.7,0,0,1,2-.7,3.28,3.28,0,0,1,2.06.57A2.29,2.29,0,0,1,25.36,4a2.78,2.78,0,0,1-.65,1.74L23.47,7.08a3.22,3.22,0,0,0-.56,1.08Zm-.06,14.51h2.39L22.38,12.48Z"/><path class="cls-2" d="M31.47,24.39V15a5.78,5.78,0,0,1,1.74-4.52A6.35,6.35,0,0,1,37.64,9a6.44,6.44,0,0,1,4.47,1.54A5.71,5.71,0,0,1,43.8,15v9.43a5.8,5.8,0,0,1-1.66,4.37,6.13,6.13,0,0,1-4.49,1.64,6.16,6.16,0,0,1-4.48-1.61A5.78,5.78,0,0,1,31.47,24.39Zm4.79-9.85V24.81a2.81,2.81,0,0,0,.32,1.46A1.4,1.4,0,0,0,38.84,26,3.76,3.76,0,0,0,39,24.81V14.54a3.79,3.79,0,0,0-.15-1.19,1.21,1.21,0,0,0-1.22-.7,1.24,1.24,0,0,0-1.21.67A3.93,3.93,0,0,0,36.26,14.54Z"/><path class="cls-2" d="M54,30.06V9.28h4.79v7.78h2.75V9.28h4.79V30.06H61.52V21.21H58.77v8.85Z"/><path class="cls-2" d="M69.39,30.06V9.28h4.79V30.06Z"/><path class="cls-2" d="M77.26,9.25H87.9v4H82v4.15h5.13v4H82v4.62h6.08v4H77.26ZM78.85,8,81,4.48h3.67L86.54,8h-2.7L82.7,6,81.4,8Zm7.26-2.18V5.31q0-.55,1.19-1.82a2.48,2.48,0,0,0,.41-.58,1.37,1.37,0,0,0,.16-.63,1,1,0,0,0-.13-.57q-.09-.15-.5-.18a.77.77,0,0,0-.86.89V3H84.63V2.29A2.14,2.14,0,0,1,85.27.76,2.75,2.75,0,0,1,87.33,0a2.86,2.86,0,0,1,1.82.55,2,2,0,0,1,.7,1.64,2.49,2.49,0,0,1-1.07,1.88,2.38,2.38,0,0,0-1.09,1.76Z"/><path class="cls-2" d="M91.2,30.06V9.28h7.54l1.36,10.3,1.4-10.3H109V30.06h-4.62V13.91l-2.73,16.15H98.56L95.88,13.91l-.05,16.15Z"/><path class="cls-2" d="M118.54,30.06l4-11.21-3.8-9.57h5.14l1.64,5.9,1.71-5.9h5L128.42,19l4.06,11.06h-5l-2-6.72-1.93,6.72Z"/><path class="cls-2" d="M137.57,9.25h6.35l3.92,20.81h-5l-.44-3.69H139l-.5,3.69h-4.79ZM145,5.13a5.63,5.63,0,0,1-1.07,1.82,2.51,2.51,0,0,1-1.9.79,3.91,3.91,0,0,1-1.61-.44,3.83,3.83,0,0,0-1.37-.42,1.44,1.44,0,0,0-.75.32,2.06,2.06,0,0,0-.22.23l-.3.39-1.26-.47q.19-.5.32-.79a3.17,3.17,0,0,1,.6-.93,2.11,2.11,0,0,1,1.66-.89,5.13,5.13,0,0,1,1.74.39,8.72,8.72,0,0,0,1.51.5,1.34,1.34,0,0,0,.86-.29,1.81,1.81,0,0,0,.55-.76ZM139.5,22.67h2.39l-1.12-10.19Z"/><path class="cls-2" d="M157.12,30.06V9.28h4.79v7.78h2.75V9.28h4.79V30.06h-4.79V21.21H161.9v8.85Z"/><path class="cls-2" d="M172.37,14.93a5.83,5.83,0,0,1,1.74-4.53,6.38,6.38,0,0,1,4.43-1.47A6.51,6.51,0,0,1,183,10.44a5.7,5.7,0,0,1,1.71,4.49v9.46a5.85,5.85,0,0,1-1.66,4.37,7,7,0,0,1-9,0,5.78,5.78,0,0,1-1.69-4.39ZM174.68,8l2.16-3.53h3.67L182.39,8h-2.7l-1.14-2-1.31,2Zm1.68,24h4.47v3.07h-4.47Zm.8-7.25a2.81,2.81,0,0,0,.32,1.46,1.4,1.4,0,0,0,2.26-.29,3.76,3.76,0,0,0,.18-1.17V14.51a3.79,3.79,0,0,0-.15-1.19,1.21,1.21,0,0,0-1.22-.7,1.24,1.24,0,0,0-1.21.67,3.93,3.93,0,0,0-.18,1.22Z"/><path class="cls-2" d="M187.78,30.06V9.28h4.79V30.06Z"/><path class="cls-2" d="M205.19,30.06,202,9.28h4.89l1.31,14.78,1.64-14.78h4.8l-3.53,20.78Z"/><path class="cls-2" d="M216.87,30.06V9.28h4.79V30.06Z"/><path class="cls-2" d="M224.74,9.25h10.64v4h-5.85v4.15h5.13v4h-5.13v4.62h6.08v4H224.74ZM226.33,8l2.16-3.53h3.67L234,8h-2.7l-1.14-2-1.29,2Zm1.43,24h4.47v3.07h-4.47Z"/><path class="cls-2" d="M237.76,13.29v-4h11v4h-3.1V30.06h-4.79V13.29Z"/><path class="cls-2" d="M258.15,30.06V9.28h5.23l3.85,12.25.05-12.25h4.63V30.06h-5.21l-3.87-12.85-.05,12.85Z"/><path class="cls-2" d="M274,30.06,277.8,9.28h6.35L288,30.06h-5l-.44-3.69h-3.35l-.5,3.69Zm5.78-7.39h2.39L281,12.5Z"/><path class="cls-2" d="M290.22,30.06V9.28h7.54l1.36,10.3,1.4-10.3h7.54V30.06h-4.62V13.91l-2.73,16.15h-3.12L294.9,13.91l-.05,16.15Z"/></g></g></svg>